HIERARCHY
ROOT Hips
{
	OFFSET 0.000000 0.000000 0.000000
	CHANNELS 6 Xposition Yposition Zposition Zrotation Yrotation Xrotation 
	JOINT LHipJoint
	{
		OFFSET 0.000000 0.000000 0.000000
		CHANNELS 3 Zrotation Yrotation Xrotation
		JOINT LeftUpLeg
		{
			OFFSET 8.178360 -10.767780 5.035740
			CHANNELS 3 Zrotation Yrotation Xrotation
			JOINT LeftLeg
			{
				OFFSET 14.688660 -40.356780 0.000000
				CHANNELS 3 Zrotation Yrotation Xrotation
				JOINT LeftFoot
				{
					OFFSET 15.373200 -42.237540 0.000000
					CHANNELS 3 Zrotation Yrotation Xrotation
					JOINT LeftToeBase
					{
						OFFSET 0.945840 -2.598660 13.935300
						CHANNELS 3 Zrotation Yrotation Xrotation
						End Site
						{
							OFFSET 0.000000 0.000000 0.000000
						}
					}
				}
			}
		}
	}
	JOINT RHipJoint
	{
		OFFSET 0.000000 0.000000 0.000000
		CHANNELS 3 Zrotation Yrotation Xrotation
		JOINT RightUpLeg
		{
			OFFSET -7.833120 -10.767780 5.035740
			CHANNELS 3 Zrotation Yrotation Xrotation
			JOINT RightLeg
			{
				OFFSET -15.255180 -41.913300 0.000000
				CHANNELS 3 Zrotation Yrotation Xrotation
				JOINT RightFoot
				{
					OFFSET -15.409560 -42.337380 0.000000
					CHANNELS 3 Zrotation Yrotation Xrotation
					JOINT RightToeBase
					{
						OFFSET -0.988380 -2.715540 14.178900
						CHANNELS 3 Zrotation Yrotation Xrotation
						End Site
						{
							OFFSET 0.000000 0.000000 0.000000
						}
					}
				}
			}
		}
	}
	JOINT LowerBack
	{
		OFFSET 0.000000 0.000000 0.000000
		CHANNELS 3 Zrotation Yrotation Xrotation
		JOINT Spine
		{
			OFFSET 0.169620 12.213540 -1.160280
			CHANNELS 3 Zrotation Yrotation Xrotation
			JOINT Spine1
			{
				OFFSET 0.340320 12.293100 -0.256500
				CHANNELS 3 Zrotation Yrotation Xrotation
				JOINT Neck
				{
					OFFSET 0.000000 0.000000 0.000000
					CHANNELS 3 Zrotation Yrotation Xrotation
					JOINT Neck1
					{
						OFFSET -0.325020 10.477440 1.032120
						CHANNELS 3 Zrotation Yrotation Xrotation
						JOINT Head
						{
							OFFSET 0.624420 10.568160 -0.743820
							CHANNELS 3 Zrotation Yrotation Xrotation
							End Site
							{
								OFFSET 0.000000 0.000000 0.000000
							}
						}
					}
				}
				JOINT LeftShoulder
				{
					OFFSET 0.000000 0.000000 0.000000
					CHANNELS 3 Zrotation Yrotation Xrotation
					JOINT LeftArm
					{
						OFFSET 20.174460 7.205340 -1.867260
						CHANNELS 3 Zrotation Yrotation Xrotation
						JOINT LeftForeArm
						{
							OFFSET 29.898000 -0.000000 -0.000000
							CHANNELS 3 Zrotation Yrotation Xrotation
							JOINT LeftHand
							{
								OFFSET 20.901360 -0.000000 -0.000000
								CHANNELS 3 Zrotation Yrotation Xrotation
								JOINT LeftFingerBase
								{
									OFFSET 0.000000 0.000000 0.000000
									CHANNELS 3 Zrotation Yrotation Xrotation
									JOINT LeftHandIndex1
									{
										OFFSET 4.291560 -0.000000 -0.000000
										CHANNELS 3 Zrotation Yrotation Xrotation
										End Site
										{
											OFFSET 0.000000 0.000000 0.000000
										}
									}
								}
								JOINT LThumb
								{
									OFFSET 0.000000 0.000000 0.000000
									CHANNELS 3 Zrotation Yrotation Xrotation
									End Site
									{
										OFFSET 0.000000 0.000000 0.000000
									}
								}
							}
						}
					}
				}
				JOINT RightShoulder
				{
					OFFSET 0.000000 0.000000 0.000000
					CHANNELS 3 Zrotation Yrotation Xrotation
					JOINT RightArm
					{
						OFFSET -18.819600 8.244300 -2.427900
						CHANNELS 3 Zrotation Yrotation Xrotation
						JOINT RightForeArm
						{
							OFFSET -31.451400 -0.000000 -0.000000
							CHANNELS 3 Zrotation Yrotation Xrotation
							JOINT RightHand
							{
								OFFSET -20.665020 -0.000000 -0.000000
								CHANNELS 3 Zrotation Yrotation Xrotation
								JOINT RightFingerBase
								{
									OFFSET 0.000000 0.000000 0.000000
									CHANNELS 3 Zrotation Yrotation Xrotation
									JOINT RightHandIndex1
									{
										OFFSET -3.735180 -0.000000 -0.000000
										CHANNELS 3 Zrotation Yrotation Xrotation
										End Site
										{
											OFFSET 0.000000 0.000000 0.000000
										}
									}
								}
								JOINT RThumb
								{
									OFFSET 0.000000 0.000000 0.000000
									CHANNELS 3 Zrotation Yrotation Xrotation
									End Site
									{
										OFFSET 0.000000 0.000000 0.000000
									}
								}
							}
						}
					}
				}
			}
		}
	}
}
MOTION
Frames:	4
Frame Time:	0.0333333
73.353660 106.424856 -161.129250 -4.988387 -6.437005 2.930746 0.976990 1.354547 0.660015 -13.558588 -10.904196 -26.310651 0.331463 7.891062 22.202186 -0.643775 5.546075 8.175000 0.004200 -0.416200 -1.143500 -2.944672 -2.842846 0.854385 31.459674 1.154312 11.835536 -1.224396 -5.891859 20.897462 -0.422000 2.130902 3.866160 -0.176500 2.706600 -7.462800 4.422373 3.309484 4.328204 1.252351 4.215610 -1.639378 0.991005 2.599516 -3.189659 -7.069018 -3.916116 -10.307647 4.531397 -4.652875 15.337141 2.943600 -2.563700 9.810500 -7.802491 3.170538 -1.947276 -85.725719 3.002222 7.748297 7.601790 -14.105223 -0.714612 -1.636340 -3.300416 18.539525 14.929320 26.296111 7.881100 -7.125000 0.000000 0.000000 -18.165700 59.975400 -6.772400 5.711249 -2.015364 -2.173845 80.331307 4.874141 19.037415 -17.274669 25.496012 -5.197952 0.956017 -0.415837 3.720514 -14.025848 12.019247 -3.276400 7.125000 0.000000 0.000000 8.492500 -17.312500 5.643200 
73.911852 106.736316 -155.993172 -3.029188 -7.954377 1.789101 0.917654 1.524082 0.833281 -16.831097 -9.202146 -23.215127 0.505722 7.997836 23.036303 -0.686848 5.813291 9.496221 0.039600 1.284800 3.532900 -2.950975 -2.845591 0.812997 28.409808 2.346474 9.645284 -2.813280 -8.919339 30.270369 -0.574732 2.344288 10.188227 -0.080800 1.833300 -5.045100 2.672764 3.684138 3.217870 0.895558 4.564713 -1.448649 1.142626 2.763865 -2.257462 -6.752442 -3.915023 -10.175768 4.338914 -4.762682 16.093091 2.786600 -2.615100 10.024800 -7.914218 3.282499 -1.909957 -85.429632 3.267873 5.374669 7.216217 -13.432665 -0.529363 -1.587576 -3.494549 21.017099 13.075042 28.732711 7.294200 -7.125000 0.000000 0.000000 -22.581400 61.913400 -9.556200 5.850529 -2.223026 -2.152345 81.441145 3.921145 16.263182 -15.985582 23.790760 -4.482795 0.893871 -0.455461 6.338547 -13.533430 11.329757 -2.982900 7.125000 0.000000 0.000000 8.871800 -18.043500 5.757100 
74.071248 106.877394 -152.459604 -2.629875 -4.619927 1.535052 0.982685 1.571392 0.968198 -18.620144 -8.600662 -22.283035 0.649184 8.273490 24.338065 0.392042 0.979088 10.633761 0.295200 3.493400 9.655700 -3.044510 -2.808084 0.785281 28.020522 1.070393 3.492800 -4.973491 -11.833185 40.057715 -1.014330 -0.206454 21.062172 -0.004200 -0.416500 1.144400 1.944863 2.378121 4.415917 0.927588 2.865450 -1.714337 1.570620 1.917126 -3.532181 -6.943145 -3.946195 -10.139590 4.473545 -4.767053 15.839680 2.874800 -2.618200 9.997100 -8.001012 3.255050 -1.931234 -85.278512 3.228360 3.438072 7.006199 -13.000601 -0.518284 -1.657576 -3.202292 21.438248 13.643962 26.070161 7.074500 -7.125000 0.000000 0.000000 -19.458100 59.377400 -6.996000 5.921784 -2.187472 -2.190082 82.465689 2.763033 13.293222 -15.504490 23.019688 -4.207610 0.744001 -0.186597 6.891772 -11.854268 8.344926 -1.877000 7.125000 0.000000 0.000000 10.286200 -21.407300 5.916200 
74.447442 107.326878 -148.417920 -0.988834 -4.423755 0.730762 0.976598 1.725125 1.106363 -21.586480 -7.539600 -18.991218 0.632348 7.987264 24.006094 0.389523 0.403073 8.850430 0.109100 2.130000 5.865000 -3.128805 -2.779809 0.734304 25.791033 2.492736 -1.668449 -7.575427 -14.399462 49.843016 -1.734707 -3.031795 28.331851 -0.693200 -5.322300 14.830100 0.302283 2.155184 4.672860 0.686706 2.500732 -1.503919 1.839799 1.703967 -3.198302 -6.919758 -3.794496 -9.927876 4.598467 -4.557933 14.885392 2.959300 -2.492700 9.492800 -8.058489 3.269524 -1.856895 -84.793669 2.287949 4.193065 6.793202 -12.591547 -0.471858 -1.711751 -3.096102 21.181772 14.206711 25.160243 7.194900 -7.125000 0.000000 0.000000 -18.059100 58.583500 -6.125700 5.905766 -2.265996 -2.184321 83.387188 1.537358 11.995218 -15.460863 23.005619 -4.187849 0.778692 -0.347066 7.262335 -12.268678 9.940732 -2.348100 7.125000 0.000000 0.000000 9.881100 -19.630600 6.077500 
